HIERARCHY
ROOT Hips
{
  OFFSET 39.4171 81.7151 -3.59683
  CHANNELS 6 Xposition Yposition Zposition Zrotation Xrotation Yrotation
  JOINT spine
  {
    OFFSET 0 6.24479 0.359107
    CHANNELS 3 Zrotation Xrotation Yrotation
    JOINT spine1
    {
      OFFSET 0 9.06941 0
      CHANNELS 3 Zrotation Xrotation Yrotation
      JOINT spine2
      {
        OFFSET 0 8.69014 0
        CHANNELS 3 Zrotation Xrotation Yrotation
        JOINT Neck
        {
          OFFSET 0 22.3112 1.06372
          CHANNELS 3 Zrotation Xrotation Yrotation
          JOINT Head
          {
            OFFSET 0 6.74081 0
            CHANNELS 3 Zrotation Xrotation Yrotation
            End Site
            {
              OFFSET 0 16.3165 -5.38097
            }
          }
        }
        JOINT RightShoulder
        {
          OFFSET -3.65916 9.38468 -0.509514
          CHANNELS 3 Zrotation Xrotation Yrotation
          JOINT RightArm
          {
            OFFSET 0 12.3089 0
            CHANNELS 3 Zrotation Xrotation Yrotation
            JOINT RightArmRoll
            {
              OFFSET 0 6.21375 0
              CHANNELS 3 Zrotation Xrotation Yrotation
              JOINT RightForeArm
              {
                OFFSET 0 18.0985 0
                CHANNELS 3 Zrotation Xrotation Yrotation
                JOINT RightForeArmRoll
                {
                  OFFSET 0 6.97279 0
                  CHANNELS 3 Zrotation Xrotation Yrotation
                  JOINT RightHand
                  {
                    OFFSET 0 13.9929 0
                    CHANNELS 3 Zrotation Xrotation Yrotation
                    End Site
                    {
                      OFFSET 0 0 0
                    }
                  }
                }
              }
            }
          }
        }
        JOINT LeftShoulder
        {
          OFFSET 3.65916 9.38468 -0.509514
          CHANNELS 3 Zrotation Xrotation Yrotation
          JOINT LeftArm
          {
            OFFSET 0 12.3089 0
            CHANNELS 3 Zrotation Xrotation Yrotation
            JOINT LeftArmRoll
            {
              OFFSET 0 6.21375 0
              CHANNELS 3 Zrotation Xrotation Yrotation
              JOINT LeftForeArm
              {
                OFFSET 0 18.0985 0
                CHANNELS 3 Zrotation Xrotation Yrotation
                JOINT LeftForeArmRoll
                {
                  OFFSET 0 6.97279 0
                  CHANNELS 3 Zrotation Xrotation Yrotation
                  JOINT LeftHand
                  {
                    OFFSET 0 13.9929 0
                    CHANNELS 3 Zrotation Xrotation Yrotation
                    End Site
                    {
                      OFFSET 0 0 0
                    }
                  }
                }
              }
            }
          }
        }
      }
    }
  }
  JOINT RightUpLeg
  {
    OFFSET -5.53515 -1.015 -0.851454
    CHANNELS 3 Zrotation Xrotation Yrotation
    JOINT RightUpLegRoll
    {
      OFFSET 0 16.4075 0
      CHANNELS 3 Zrotation Xrotation Yrotation
      JOINT RightLeg
      {
        OFFSET 0 -20.3181 0
        CHANNELS 3 Zrotation Xrotation Yrotation
        JOINT RightLegRoll
        {
          OFFSET 0 20.3846 0
          CHANNELS 3 Zrotation Xrotation Yrotation
          JOINT RightFoot
          {
            OFFSET 0 16.9668 0
            CHANNELS 3 Zrotation Xrotation Yrotation
            JOINT RightToeBase
            {
              OFFSET 0 14.1834 0
              CHANNELS 3 Zrotation Xrotation Yrotation
              End Site
              {
                OFFSET 0.0060118 6.86889 -0.791746
              }
            }
          }
        }
      }
    }
  }
  JOINT LeftUpLeg
  {
    OFFSET 5.53515 -1.015 -0.851454
    CHANNELS 3 Zrotation Xrotation Yrotation
    JOINT LeftUpLegRoll
    {
      OFFSET 0 16.4076 0
      CHANNELS 3 Zrotation Xrotation Yrotation
      JOINT LeftLeg
      {
        OFFSET 0 20.3181 0
        CHANNELS 3 Zrotation Xrotation Yrotation
        JOINT LeftLegRoll
        {
          OFFSET 0 20.5731 0
          CHANNELS 3 Zrotation Xrotation Yrotation
          JOINT LeftFoot
          {
            OFFSET 0 16.7783 0
            CHANNELS 3 Zrotation Xrotation Yrotation
            JOINT LeftToeBase
            {
              OFFSET 0 14.1834 0
              CHANNELS 3 Zrotation Xrotation Yrotation
              End Site
              {
                OFFSET -0.0269423 6.8689 -0.791746
              }
            }
          }
        }
      }
    }
  }
}
MOTION
Frames: 12
Frame Time: 0.00208333
58.4286 82.7049 9.51209 -23.9492 -2.39246 76.5389 -1.37407 -3.13228 1.17522 -2.68934 -2.2915 2.45526 -2.71786 -0.648148 2.49975 -16.1626 -34.9615 -6.00106 27.8467 21.6029 -6.82886 14.2561 -2.3676 4.67439 -106.794 67.1255 -151.796 -1.8465e-006 1.97607e-006 9.73837e-006 1.62975 16.9048 -1.81181 -1.65042e-006 7.78047e-007 -3 8.02927 -4.95158 0.69771 -83.8794 -17.5827 9.07176 -90.1454 19.0253 -15.4921 4.99708e-006 6.42687e-007 1.88923e-007 -7.99068 24.9443 2.44122 4.60536e-006 7.75641e-006 3 -8.0302 -4.95096 -0.697558 -172.812 9.82808 -3.16313 180 7.01564e-015 179 176.471 23.3539 179.677 3.74454e-006 2.95649e-007 0.299884 -20.5011 70.3759 21.7185 8.71525 30.0675 -6.12912 -171.343 43.4323 2.19562 4.54188e-006 -4.6773e-006 -0.532572 2.61484 -16.4925 1.2417 2.45565e-006 7.5488e-007 0.500676 12.0189 61.555 -15.7698 -8.12666 25.2339 3.48253 
58.4529 82.7076 9.51521 -23.995 -2.38973 76.5737 -1.37463 -3.12865 1.17376 -2.69098 -2.28423 2.45242 -2.71947 -0.640878 2.49693 -16.2591 -34.9545 -6.00951 27.8431 21.6122 -6.82955 14.202 -2.37448 4.67586 -107.104 66.9665 -151.563 -1.8465e-006 1.97607e-006 9.73837e-006 1.75038 16.856 -1.82431 -1.65042e-006 7.78047e-007 -3 8.02927 -4.95158 0.69771 -83.9368 -17.5409 9.05204 -90.1688 19.1398 -15.4068 4.99708e-006 6.42687e-007 1.88923e-007 -8.03216 24.9757 2.45428 4.60536e-006 7.75641e-006 3 -8.0302 -4.95096 -0.697558 -172.816 9.84662 -3.17527 180 7.01564e-015 179.001 176.486 23.3292 179.673 3.74454e-006 2.95649e-007 0.299948 -20.4952 70.37 21.7129 8.70516 29.9927 -6.11663 -171.367 43.4724 2.22311 4.54188e-006 -4.6773e-006 -0.531835 2.6234 -16.5073 1.24437 2.45565e-006 7.5488e-007 0.500242 12.0366 61.5715 -15.7758 -8.12666 25.2339 3.48252 
58.4818 82.7231 9.51961 -24.042 -2.38734 76.6096 -1.37522 -3.12544 1.17226 -2.69276 -2.27781 2.44948 -2.72122 -0.634452 2.49403 -16.3486 -34.9461 -6.01602 27.8335 21.6247 -6.82954 14.1552 -2.38172 4.67535 -107.413 66.8053 -151.326 -1.8465e-006 1.97607e-006 9.73836e-006 1.87027 16.81 -1.83653 -1.65042e-006 7.78047e-007 -3 8.02927 -4.95158 0.69771 -83.9951 -17.5007 9.03292 -90.1887 19.2588 -15.3223 4.99708e-006 6.42687e-007 1.88923e-007 -8.07372 25.0028 2.46705 4.60536e-006 7.75641e-006 3 -8.0302 -4.95096 -0.697558 -172.82 9.86679 -3.18839 180 7.01564e-015 179.002 176.501 23.3046 179.669 3.74454e-006 2.95649e-007 0.300023 -20.49 70.365 21.7081 8.69493 29.9156 -6.10568 -171.391 43.5141 2.25147 4.54188e-006 -4.6773e-006 -0.531056 2.63216 -16.5216 1.24701 2.45565e-006 7.5488e-007 0.499902 12.0559 61.5885 -15.782 -8.12666 25.2339 3.48252 
58.5108 82.7245 9.52417 -24.0895 -2.38521 76.6461 -1.37584 -3.12256 1.17074 -2.69465 -2.27203 2.44652 -2.72308 -0.62867 2.49111 -16.4319 -34.9362 -6.02075 27.8188 21.6398 -6.82891 14.1149 -2.38911 4.6733 -107.722 66.6427 -151.086 -1.8465e-006 1.97607e-006 9.73837e-006 1.98895 16.7669 -1.84846 -1.65042e-006 7.78047e-007 -3 8.02927 -4.95158 0.69771 -84.054 -17.462 9.01433 -90.2055 19.382 -15.2384 4.99708e-006 6.42687e-007 1.88923e-007 -8.11527 25.026 2.47951 4.60536e-006 7.75641e-006 3 -8.0302 -4.95096 -0.697558 -172.823 9.88791 -3.20222 180 7.01565e-015 179.003 176.516 23.2797 179.665 3.74454e-006 2.95649e-007 0.300107 -20.4855 70.3606 21.704 8.6846 29.8369 -6.09604 -171.415 43.5568 2.28053 4.54188e-006 -4.6773e-006 -0.530242 2.6411 -16.5357 1.24964 2.45565e-006 7.5488e-007 0.499639 12.0765 61.6061 -15.7882 -8.12666 25.2339 3.48251 
58.536 82.7227 9.52635 -24.1371 -2.38327 76.6829 -1.3765 -3.11989 1.16926 -2.69666 -2.26669 2.44363 -2.72505 -0.623335 2.48825 -16.51 -34.9245 -6.02391 27.8001 21.6568 -6.82773 14.0805 -2.39646 4.67012 -108.032 66.4794 -150.841 -1.8465e-006 1.97607e-006 9.73837e-006 2.10594 16.7266 -1.8601 -1.65042e-006 7.78047e-007 -3 8.02927 -4.95158 0.69771 -84.1136 -17.4246 8.99623 -90.2196 19.5088 -15.1553 4.99708e-006 6.42687e-007 1.88923e-007 -8.15673 25.0455 2.49167 4.60536e-006 7.75641e-006 3 -8.0302 -4.95096 -0.697558 -172.824 9.90932 -3.2165 180 7.01565e-015 179.003 176.53 23.2544 179.662 3.74454e-006 2.95649e-007 0.300194 -20.4814 70.3565 21.7003 8.67424 29.7572 -6.0875 -171.44 43.5998 2.31011 4.54188e-006 -4.6773e-006 -0.529403 2.65022 -16.5496 1.25229 2.45565e-006 7.5488e-007 0.499434 12.0981 61.624 -15.7945 -8.12666 25.2339 3.48251 
58.5563 82.7259 9.53165 -24.1843 -2.38145 76.7197 -1.3772 -3.11735 1.16785 -2.69876 -2.26161 2.44089 -2.72712 -0.618247 2.48554 -16.5838 -34.9109 -6.02566 27.7782 21.6752 -6.82609 14.0512 -2.40358 4.66623 -108.341 66.3163 -150.591 -1.8465e-006 1.97607e-006 9.73837e-006 2.22078 16.6891 -1.87143 -1.65042e-006 7.78047e-007 -3 8.02927 -4.95158 0.69771 -84.1735 -17.3882 8.97855 -90.2313 19.6391 -15.073 4.99708e-006 6.42687e-007 1.88923e-007 -8.198 25.0614 2.50349 4.60536e-006 7.75641e-006 3 -8.0302 -4.95096 -0.697558 -172.826 9.93033 -3.23098 180 7.01565e-015 179.004 176.544 23.2286 179.658 3.74454e-006 2.95649e-007 0.300282 -20.4776 70.3528 21.6969 8.6639 29.677 -6.07987 -171.465 43.6426 2.34003 4.54188e-006 -4.6773e-006 -0.528547 2.65948 -16.5634 1.25499 2.45565e-006 7.5488e-007 0.499269 12.1206 61.6423 -15.8009 -8.12666 25.2339 3.4825 
58.5891 82.7323 9.53614 -24.2306 -2.37969 76.756 -1.37793 -3.11483 1.16655 -2.70094 -2.25657 2.43837 -2.72928 -0.613208 2.48305 -16.6542 -34.8952 -6.02621 27.7542 21.6943 -6.82406 14.0263 -2.41027 4.66206 -108.651 66.1541 -150.336 -1.8465e-006 1.97607e-006 9.73837e-006 2.33298 16.6543 -1.88244 -1.65042e-006 7.78047e-007 -3 8.02927 -4.95158 0.69771 -84.2338 -17.3528 8.96124 -90.241 19.7722 -14.9914 4.99708e-006 6.42687e-007 1.88923e-007 -8.23901 25.074 2.51497 4.60536e-006 7.75641e-006 3 -8.0302 -4.95096 -0.697558 -172.827 9.95027 -3.24538 180 7.01565e-015 179.005 176.558 23.2019 179.654 3.74454e-006 2.95649e-007 0.300365 -20.474 70.3492 21.6936 8.65363 29.5969 -6.07293 -171.49 43.6846 2.37011 4.54188e-006 -4.6773e-006 -0.527683 2.66889 -16.5773 1.25776 2.45565e-006 7.5488e-007 0.499127 12.1434 61.6609 -15.8074 -8.12666 25.2339 3.4825 
58.605 82.734 9.54002 -24.2755 -2.3779 76.7916 -1.3787 -3.11224 1.1654 -2.70321 -2.25138 2.43615 -2.73152 -0.60802 2.48087 -16.722 -34.8772 -6.02572 27.729 21.7137 -6.82171 14.005 -2.41632 4.65802 -108.96 65.9936 -150.075 -1.8465e-006 1.97607e-006 9.73836e-006 2.44208 16.6223 -1.89313 -1.65042e-006 7.78047e-007 -3 8.02927 -4.95158 0.69771 -84.2943 -17.3181 8.94423 -90.2489 19.9079 -14.9106 4.99708e-006 6.42687e-007 1.88923e-007 -8.27965 25.0836 2.5261 4.60536e-006 7.75641e-006 3 -8.0302 -4.95096 -0.697558 -172.827 9.96846 -3.25945 180 7.01565e-015 179.006 176.572 23.1743 179.651 3.74454e-006 2.95649e-007 0.300441 -20.4703 70.3455 21.6902 8.64349 29.5175 -6.06647 -171.515 43.7251 2.40017 4.54188e-006 -4.6773e-006 -0.526819 2.67842 -16.5915 1.26063 2.45565e-006 7.5488e-007 0.498988 12.1664 61.6796 -15.814 -8.12666 25.2339 3.48249 
58.6354 82.7269 9.54374 -24.3186 -2.37604 76.8262 -1.37952 -3.10946 1.16443 -2.70554 -2.24585 2.43431 -2.73383 -0.602484 2.47908 -16.7881 -34.8568 -6.02439 27.7035 21.7326 -6.81913 13.9866 -2.42155 4.65454 -109.27 65.8356 -149.808 -1.8465e-006 1.97607e-006 9.73836e-006 2.54761 16.5931 -1.90348 -1.65042e-006 7.78047e-007 -3 8.02927 -4.95158 0.69771 -84.3548 -17.284 8.92747 -90.2555 20.0458 -14.8306 4.99708e-006 6.42687e-007 1.88923e-007 -8.31986 25.0904 2.53685 4.60536e-006 7.75641e-006 3 -8.0302 -4.95096 -0.697558 -172.828 9.98423 -3.27292 180 7.01565e-015 179.007 176.586 23.1454 179.648 3.74454e-006 2.95649e-007 0.300504 -20.4664 70.3416 21.6866 8.63353 29.4395 -6.06028 -171.54 43.7637 2.43002 4.54188e-006 -4.6773e-006 -0.525965 2.68806 -16.6059 1.26363 2.45565e-006 7.5488e-007 0.498834 12.1894 61.6985 -15.8207 -8.12666 25.2339 3.48249 
58.6715 82.7282 9.54382 -24.3592 -2.37403 76.8592 -1.38038 -3.10641 1.16369 -2.70792 -2.23976 2.43294 -2.73621 -0.596402 2.47775 -16.8536 -34.8338 -6.02239 27.6788 21.7506 -6.81639 13.9704 -2.42577 4.65203 -109.579 65.6809 -149.534 -1.8465e-006 1.97607e-006 9.73837e-006 2.64909 16.5666 -1.91349 -1.65042e-006 7.78047e-007 -3 8.02927 -4.95158 0.69771 -84.4153 -17.2503 8.9109 -90.261 20.1853 -14.7514 4.99708e-006 6.42687e-007 1.88923e-007 -8.35954 25.0945 2.54722 4.60536e-006 7.75641e-006 3 -8.0302 -4.95096 -0.697558 -172.829 9.99689 -3.28554 180 7.01566e-015 179.007 176.599 23.1152 179.644 3.74454e-006 2.95649e-007 0.300553 -20.4621 70.3374 21.6827 8.62381 29.3633 -6.05416 -171.566 43.7996 2.45949 4.54188e-006 -4.6773e-006 -0.525128 2.6978 -16.6209 1.26678 2.45565e-006 7.5488e-007 0.498648 12.2119 61.7175 -15.8275 -8.12666 25.2339 3.48248 
58.6962 82.7226 9.54759 -24.3971 -2.37181 76.8905 -1.38128 -3.10299 1.16321 -2.71035 -2.23294 2.43211 -2.73863 -0.589575 2.47696 -16.9191 -34.808 -6.01992 27.6557 21.7669 -6.81357 13.9556 -2.42876 4.65093 -109.889 65.5302 -149.253 -1.8465e-006 1.97607e-006 9.73837e-006 2.74604 16.5428 -1.92315 -1.65042e-006 7.78047e-007 -3 8.02927 -4.95158 0.69771 -84.4755 -17.2167 8.89446 -90.2659 20.3262 -14.6729 4.99708e-006 6.42687e-007 1.88923e-007 -8.39861 25.0962 2.5572 4.60536e-006 7.75641e-006 3 -8.0302 -4.95096 -0.697558 -172.831 10.0058 -3.29703 180 7.01566e-015 179.008 176.612 23.0834 179.641 3.74454e-006 2.95649e-007 0.300581 -20.4572 70.3326 21.6781 8.61439 29.2896 -6.04791 -171.591 43.8324 2.48837 4.54188e-006 -4.6773e-006 -0.524317 2.70762 -16.6364 1.2701 2.45565e-006 7.5488e-007 0.498412 12.2336 61.7365 -15.8345 -8.12666 25.2339 3.48248 
58.7026 82.7268 9.56313 -24.4316 -2.36932 76.9197 -1.38224 -3.09909 1.16304 -2.71281 -2.22517 2.43191 -2.74109 -0.581804 2.4768 -16.9857 -34.7791 -6.01716 27.6352 21.7811 -6.81074 13.9415 -2.43034 4.65166 -110.199 65.3843 -148.964 -1.8465e-006 1.97607e-006 9.73837e-006 2.838 16.5216 -1.93244 -1.65042e-006 7.78047e-007 -3 8.02927 -4.95158 0.69771 -84.5353 -17.1832 8.8781 -90.2704 20.468 -14.5952 4.99708e-006 6.42687e-007 1.88923e-007 -8.43699 25.0958 2.56676 4.60536e-006 7.75641e-006 3 -8.0302 -4.95096 -0.697558 -172.833 10.0102 -3.30713 180 7.01566e-015 179.009 176.624 23.0497 179.638 3.74454e-006 2.95649e-007 0.300586 -20.4516 70.3271 21.6728 8.60533 29.2191 -6.0413 -171.616 43.8614 2.51649 4.54188e-006 -4.6773e-006 -0.523542 2.71751 -16.6526 1.27364 2.45565e-006 7.5488e-007 0.498107 12.2544 61.7555 -15.8415 -8.12666 25.2339 3.48247 
